<?xml version="1.0" encoding="UTF-8" standalone="no"?>
<!-- Created with Inkscape (http://www.inkscape.org/) -->

<svg
   xmlns:dc="http://purl.org/dc/elements/1.1/"
   xmlns:cc="http://creativecommons.org/ns#"
   xmlns:rdf="http://www.w3.org/1999/02/22-rdf-syntax-ns#"
   xmlns:svg="http://www.w3.org/2000/svg"
   xmlns="http://www.w3.org/2000/svg"
   xmlns:sodipodi="http://sodipodi.sourceforge.net/DTD/sodipodi-0.dtd"
   xmlns:inkscape="http://www.inkscape.org/namespaces/inkscape"
   width="89.017708"
   height="31.000139"
   id="svg2"
   version="1.1"
   inkscape:version="0.48.2 r9819"
   sodipodi:docname="drawing.svg">
  <defs
     id="defs4">
    <inkscape:path-effect
       effect="bend_path"
       id="path-effect2987"
       is_visible="true"
       bendpath="m 154.5012,456.356 78.76786,-29.95193"
       prop_scale="1"
       scale_y_rel="false"
       vertical="false"
       bendpath-nodetypes="cc" />
  </defs>
  <sodipodi:namedview
     id="base"
     pagecolor="#ffffff"
     bordercolor="#666666"
     borderopacity="1.0"
     inkscape:pageopacity="0.0"
     inkscape:pageshadow="2"
     inkscape:zoom="11.8953"
     inkscape:cx="31.426275"
     inkscape:cy="-1.8904966"
     inkscape:document-units="px"
     inkscape:current-layer="layer2"
     showgrid="false"
     inkscape:window-width="1192"
     inkscape:window-height="849"
     inkscape:window-x="71"
     inkscape:window-y="18"
     inkscape:window-maximized="0"
     fit-margin-top="0"
     fit-margin-left="0"
     fit-margin-right="0"
     fit-margin-bottom="0" />
  <metadata
     id="metadata7">
    <rdf:RDF>
      <cc:Work
         rdf:about="">
        <dc:format>image/svg+xml</dc:format>
        <dc:type
           rdf:resource="http://purl.org/dc/dcmitype/StillImage" />
        <dc:title />
      </cc:Work>
    </rdf:RDF>
  </metadata>
  <g
     inkscape:label="Layer 1"
     inkscape:groupmode="layer"
     id="layer1"
     transform="translate(-141.28125,-409.62486)"
     style="display:inline"
     sodipodi:insensitive="true">
    <path
       style="fill:none;stroke:#000000;stroke-width:1px;stroke-linecap:round;stroke-linejoin:miter;stroke-opacity:1"
       d="m 141.78125,439.625 c 0,0 9.55016,0.4474 14.5,0 2.73596,-0.24728 7.54633,-0.62992 10,-1 3.56439,-0.53769 6.9163,-0.70695 10,-1.1 7.90617,-1.00772 7.5856,-0.7399 15,-1.9 3.52233,-0.55112 14.16638,-1.48498 25,-4 10.23373,-2.37576 26.36048,-4.49323 30,-4.5 18.36363,-0.0342 22.20288,4.49179 25,8 2.33288,2.92594 1.59255,8.53894 0,10 -4.39616,4.03319 -5.00758,8 -25,8 -6.58486,0 -19.43721,-3.43876 -30,-4.5 -10.56279,-1.06124 -14.02436,-2.59059 -25,-4 -4.67803,-0.60072 -10.32911,-1.24553 -15,-1.9 -2.33544,-0.32723 -6.66489,-0.74982 -10,-1.1 -3.33164,-0.34981 -7.66589,-0.6637 -10,-1 -3.95062,-0.56922 -14.5,-1 -14.5,-1 z"
       id="path2985"
       inkscape:connector-curvature="0"
       sodipodi:nodetypes="cssssssssssssasc" />
  </g>
  <g
     inkscape:groupmode="layer"
     id="layer2"
     inkscape:label="LayerUp"
     style="display:inline">
    <path
       style="fill:none;stroke:#ed0000;stroke-width:1px;stroke-linecap:round;stroke-linejoin:miter;stroke-opacity:1"
       d="m 9,13.000139 c 0,0 4.01713,6.854481 7.5,10.4 2.399692,2.442858 8.543127,3.584869 11,3.9 3.575426,0.458602 4.9163,0.493055 8,0.1 7.90617,-1.00772 7.0856,0.2601 14.5,-0.9 3.52233,-0.55112 14.16638,-1.48498 25,-4 10.233729,-2.37576 26.36048,-4.49323 30,-4.5 18.36363,-0.0342 22.20288,4.49179 25,8 2.33288,2.92594 1.59255,8.53894 0,10 -4.39616,4.03319 -5.00758,8 -25,8 -6.584861,0 -19.437211,-3.438755 -30,-4.499995 -10.56279,-1.061235 -14.02436,-2.59059 -25,-4 -4.67803,-0.60072 -9.156576,-0.873001 -14.5,-2.200005 -2.288731,-0.568392 -6.039715,-1.32126 -8.8,-2.65 -3.724079,-1.792689 -8.223124,-5.582358 -10.2,-7.05 -2.348947,-1.743868 -7.5,-10.6 -7.5,-10.6 z"
       id="path2985-4"
       inkscape:connector-curvature="0"
       sodipodi:nodetypes="cssssssssssssasc" />
  </g>
</svg>
